<?xml version="1.0" standalone="no"?>
<!DOCTYPE svg PUBLIC "-//W3C//DTD SVG 20010904//EN"
 "http://www.w3.org/TR/2001/REC-SVG-20010904/DTD/svg10.dtd">
<svg version="1.0" xmlns="http://www.w3.org/2000/svg"
 width="300.000000pt" height="170.000000pt" viewBox="0 0 300.000000 170.000000"
 preserveAspectRatio="xMidYMid meet">
<metadata>
Created by potrace 1.10, written by Peter Selinger 2001-2011
</metadata>
<g transform="translate(0.000000,170.000000) scale(0.100000,-0.100000)"
fill="#f4dcd0" stroke="none">
<path d="M0 850 l0 -850 1500 0 1500 0 0 850 0 850 -1500 0 -1500 0 0 -850z
m2980 5 l0 -835 -30 0 -30 0 0 800 0 800 -1415 0 -1415 0 0 -800 0 -800 -35 0
-35 0 0 835 0 835 1480 0 1480 0 0 -835z m-1900 30 l0 -35 -110 0 -110 0 0
-321 0 -320 -37 3 -38 3 -3 318 -2 317 -105 0 -105 0 0 35 0 35 255 0 255 0 0
-35z m469 -27 c11 -35 61 -188 110 -342 50 -153 91 -284 91 -292 0 -10 -12
-14 -38 -14 l-38 0 -39 125 -38 125 -116 0 -117 0 -40 -122 -40 -123 -43 -3
c-34 -3 -42 0 -38 11 3 8 55 168 117 356 l111 341 49 0 48 0 21 -62z m709 34
c56 -30 82 -73 82 -137 0 -62 -27 -109 -75 -132 -41 -20 -44 -29 -12 -37 58
-14 116 -94 117 -160 0 -82 -47 -152 -129 -189 -39 -18 -66 -21 -176 -22
l-130 0 -3 340 c-1 187 0 346 3 353 4 11 34 13 143 10 119 -3 143 -7 180 -26z"/>
<path d="M1436 687 c-21 -67 -41 -130 -43 -139 -5 -16 4 -18 86 -18 50 0 91 2
91 5 0 13 -83 261 -89 267 -4 4 -24 -47 -45 -115z"/>
<path d="M2017 843 c-4 -3 -7 -51 -7 -105 l0 -98 80 0 c128 0 170 27 170 108
0 68 -58 101 -181 102 -31 0 -59 -3 -62 -7z"/>
<path d="M2017 563 c-4 -3 -7 -66 -7 -140 l0 -133 81 0 c129 0 189 43 189 136
0 60 -34 105 -95 126 -50 17 -156 24 -168 11z"/>
</g>
</svg>
